<svg width="379" height="134" viewBox="0 0 379 134" fill="none" xmlns="http://www.w3.org/2000/svg">
<g clip-path="url(#clip0_2142_4012)">
<path d="M36.73 132.94H32.65C32.37 132.94 32.19 132.75 32.19 132.48V120.7C32.19 117.45 32.38 114.67 32.38 112.17C32.38 111.89 32.57 111.15 32.38 111.15C32.19 111.15 32.01 111.61 31.92 111.61C31.27 112.72 29.97 114.67 29.23 115.78L19.03 130.25C18.84 130.53 18.47 130.53 18.38 130.25L7.9 115.78C7.16 114.67 5.95 112.63 5.21 111.51C5.02 111.14 5.02 111.05 4.84 111.14C4.66 111.23 4.75 111.79 4.75 112.07C4.84 114.57 4.94 117.17 4.94 120.51V132.57C4.94 132.76 4.75 133.03 4.48 133.03H0.46C0.18 133.03 0 132.84 0 132.57V97.79C0 97.42 0.56 97.23 0.74 97.51C3.89 101.96 15.95 119.03 18.18 122.28C18.37 122.56 18.74 122.56 18.83 122.28C21.06 119.03 33.11 102.06 36.27 97.51C36.55 97.14 37.01 97.32 37.01 97.79V132.57C37.1 132.76 36.92 132.94 36.73 132.94Z" fill="#333F48"/>
<path d="M73.2801 133.68C64.0001 133.68 58.8101 128.21 58.8101 118.38V98.5299C58.8101 98.1599 59.0901 97.8799 59.4601 97.8799H63.0801C63.4501 97.8799 63.7301 98.1599 63.7301 98.5299V118.38C63.7301 125.52 66.8801 129.05 73.2801 129.05C79.6801 129.05 82.8301 125.62 82.8301 118.38V98.5299C82.8301 98.1599 83.1101 97.8799 83.4801 97.8799H87.1001C87.4701 97.8799 87.7501 98.1599 87.7501 98.5299V118.38C87.7501 128.12 82.4601 133.68 73.2801 133.68Z" fill="#333F48"/>
<path d="M130.5 114.29C130.04 114.01 129.94 113.36 130.41 112.99C132.27 111.6 133.75 109.37 133.75 106.78C133.75 101.59 129.48 97.9702 123.45 97.9702H112.23C111.86 97.9702 111.49 98.3402 111.49 98.7102V132.29C111.49 132.66 111.86 133.03 112.23 133.03H124.29C131.43 133.03 135.98 128.95 135.98 122.55C135.98 118.56 133.29 115.69 130.51 114.29M116.41 103.07C116.41 102.7 116.78 102.33 117.15 102.33H122.72C126.52 102.33 128.93 104.28 128.93 107.15C128.93 110.02 126.24 112.16 122.72 112.16H117.15C116.78 112.16 116.41 111.79 116.41 111.42V103.07ZM124.02 128.58H117.16C116.79 128.58 116.42 128.21 116.42 127.84V116.9C116.42 116.53 116.79 116.16 117.16 116.16H123.84C127.83 116.16 130.98 118.85 130.98 122.37C130.98 126.08 128.2 128.58 124.02 128.58Z" fill="#333F48"/>
<path d="M221.96 97.9702H208.97C208.69 97.9702 208.41 98.2502 208.41 98.5302V132.39C208.41 132.67 208.69 132.95 208.97 132.95H222.23C232.34 132.95 240.04 125.53 240.04 115.61C240.04 105.69 232.25 97.9902 221.95 97.9902M222.23 128.32H213.88C213.6 128.32 213.32 128.04 213.32 127.76V103.18C213.32 102.9 213.6 102.62 213.88 102.62H221.95C229.56 102.62 235.03 108.09 235.03 115.7C235.03 123.96 228.63 128.31 222.23 128.31" fill="#333F48"/>
<path d="M328.81 132.94H306.46C306.18 132.94 306 132.75 306 132.48V98.44C306 98.16 306.19 97.98 306.46 97.98H310.36C310.64 97.98 310.82 98.17 310.82 98.44V127.84C310.82 128.12 311.01 128.3 311.28 128.3H330.57C330.94 128.3 331.13 128.67 331.03 128.95L329.27 132.66C329.18 132.85 328.99 132.94 328.81 132.94Z" fill="#333F48"/>
<path d="M189.22 132.94H184.95C184.76 132.94 184.67 132.85 184.58 132.75L181.89 127.37C181.8 127.28 181.7 127.18 181.52 127.18H166.22C165.94 127.18 165.76 126.9 165.85 126.62L167.71 123C167.8 122.91 167.9 122.81 168.08 122.81H178.93C179.21 122.81 179.39 122.53 179.3 122.25L171.51 106.39C171.51 106.39 171.51 106.3 171.42 106.2C171.42 106.29 171.33 106.39 171.33 106.39L158.34 132.73C158.25 132.82 158.15 132.92 157.97 132.92H153.89C153.61 132.92 153.43 132.64 153.52 132.36L171.14 97.0201C171.33 96.7401 171.7 96.7401 171.79 97.0201L189.51 132.27C189.7 132.55 189.51 132.92 189.23 132.92" fill="#333F48"/>
<path d="M289.48 132.94H285.21C285.02 132.94 284.93 132.85 284.84 132.75L282.15 127.37C282.06 127.28 281.96 127.18 281.78 127.18H266.48C266.2 127.18 266.02 126.9 266.11 126.62L267.97 123C268.06 122.91 268.16 122.81 268.34 122.81H279.19C279.47 122.81 279.65 122.53 279.56 122.25L271.77 106.39C271.77 106.39 271.77 106.3 271.68 106.2C271.68 106.29 271.59 106.39 271.59 106.39L258.6 132.73C258.51 132.82 258.41 132.92 258.23 132.92H254.15C253.87 132.92 253.69 132.64 253.78 132.36L271.4 97.0201C271.59 96.7401 271.96 96.7401 272.14 97.0201L289.86 132.27C289.95 132.55 289.77 132.92 289.49 132.92" fill="#333F48"/>
<path d="M378.43 132.94H374.16C373.97 132.94 373.88 132.85 373.79 132.75L371.1 127.37C371.01 127.28 370.91 127.18 370.73 127.18H355.43C355.15 127.18 354.97 126.9 355.06 126.62L356.92 123C357.01 122.91 357.11 122.81 357.29 122.81H368.14C368.42 122.81 368.6 122.53 368.51 122.25L360.72 106.39C360.72 106.39 360.72 106.3 360.63 106.2C360.63 106.29 360.54 106.39 360.54 106.39L347.55 132.73C347.46 132.82 347.36 132.92 347.18 132.92H343.1C342.82 132.92 342.64 132.64 342.73 132.36L360.35 97.0201C360.54 96.7401 360.91 96.7401 361.09 97.0201L378.81 132.27C378.9 132.55 378.72 132.92 378.44 132.92" fill="#333F48"/>
<path d="M245.11 39.6603C244.75 44.5503 251.63 42.5603 253.44 41.3803C255.61 40.0203 256.79 39.2103 258.24 36.8503C260.5 33.0503 258.15 30.6903 256.25 30.5103C255.16 30.4203 252.81 30.7803 251.18 33.8603C250.37 35.4003 250.09 37.3903 250.27 39.0203C247.46 40.6503 247.46 37.6603 247.46 36.5803C247.46 35.9503 247.55 34.9503 247.64 34.2303C247.91 32.0603 247.28 32.6003 245.83 33.8703C244.92 34.6803 238.77 39.8403 228.72 45.0003C218.67 50.1603 204.37 55.4103 182.01 60.5703C155.13 66.8203 128.88 65.5503 124.8 58.6703C120.72 51.7903 141.64 39.7503 142.99 38.9403C144.44 38.1303 142.72 37.5803 141.81 38.0303C141.81 38.0303 116.92 51.5203 121.9 61.2003C126.88 70.7903 152.4 70.6103 179.38 65.0003C224.1 55.6803 242.47 39.1103 244.55 37.8403C245.73 37.2103 245.27 38.3803 245.09 39.6503" fill="#333F48"/>
<path d="M221.93 22.0101C215.77 22.6401 212.34 23.8201 210.71 24.2701C208.9 24.8101 207.81 25.6301 207.72 26.2601C207.63 26.8001 207.99 26.9801 209.53 26.8901C211.52 26.7101 221.3 24.9001 227.09 24.9001C234.06 24.9001 238.13 25.8101 239.49 27.6201C241.12 29.7001 235.05 37.4901 212.43 45.1801C188.35 53.4201 169.8 56.5901 144.99 58.4901C143.36 58.5801 142.55 59.4001 145.53 59.9401C150.06 60.7501 172.87 61.2101 203.01 51.7001C233.06 42.2001 244.74 31.5101 241.57 25.9001C240.3 23.3701 233.88 20.8301 221.93 22.0101Z" fill="#333F48"/>
<path d="M174.05 12.0502C179.03 8.70018 190.52 5.44018 201.93 11.0502C218.4 19.1102 224.47 38.1102 215.69 53.4102C207.54 67.7102 194.15 69.0702 189.44 69.4302C185.1 69.7002 176.59 69.3402 172.33 68.5202C170.43 68.1602 170.34 69.4302 171.52 69.7902C176.95 71.4202 192.16 75.5802 206.64 67.4402C222.48 58.5702 225.83 44.0002 222.12 29.0602C217.96 12.6802 202.93 3.72018 187 4.44018C178.04 4.80018 173.24 9.60018 172.61 11.5002C172.16 12.5902 172.88 12.8602 174.06 12.0402" fill="#333F48"/>
<path d="M166.54 17.4904C167.99 15.9504 168.62 15.4104 169.26 14.6804C169.71 14.2304 168.17 13.2304 165.55 14.7704C162.93 16.3104 155.96 24.2704 154.33 33.4204C152.16 45.7304 158.58 56.4104 162.75 59.8504C166.64 63.0204 166.82 61.1204 166.1 60.4804C165.47 59.8504 160.04 54.0504 158.32 45.4504C157.05 39.1104 157.14 35.0404 159.23 29.0704C161.04 23.9104 165.75 18.3904 166.56 17.4804" fill="#333F48"/>
<path d="M208.54 29.8003C196.32 23.0103 180.93 19.0303 172.24 17.5803C169.89 17.2203 168.71 19.1203 170.79 19.4803C183.82 21.8303 192.97 24.1003 208.35 31.0703C208.53 31.1603 209.07 31.1603 209.26 30.8903C209.44 30.6203 209.17 30.1703 208.54 29.8003Z" fill="#333F48"/>
<path d="M216.14 38.8504C198.49 29.6204 175.5 25.8204 165.81 24.8204C163.64 24.5504 162.64 26.9004 164.54 27.0804C187.89 29.7004 203.64 34.4104 215.59 40.0204C215.86 40.1104 216.31 40.2904 216.59 39.9304C216.86 39.6604 216.77 39.2104 216.14 38.8404" fill="#333F48"/>
<path d="M163.19 35.9502C182.02 36.5802 201.12 40.7502 208.27 42.8302C208.72 42.9202 208.99 42.7402 209.08 42.4702C209.17 42.2002 208.9 41.8402 208.36 41.6602C183.65 34.1502 166.99 33.7802 163.37 33.7802C161.38 33.6002 160.47 35.8602 163.19 35.9502Z" fill="#333F48"/>
<path d="M189.35 6.99016L190.16 6.63016V5.91016H189.98C186 5.91016 181.92 8.99016 178.57 14.5102C174.68 20.8502 172.41 29.6302 172.14 39.1302C171.51 60.4002 178.02 78.6902 185.72 78.9602H185.81C187.8 78.9602 190.06 77.7802 190.52 74.8002C190.52 74.5302 190.61 73.6202 190.16 73.5302C189.71 73.4402 189.53 73.9802 189.25 74.6202C188.62 76.0702 187.26 76.3402 185.9 76.2502C183.37 76.1602 180.38 72.5402 178.3 64.9402C176.04 56.7002 174.59 47.3802 175.04 37.8802C175.85 17.7902 184 6.74016 189.34 7.01016" fill="#333F48"/>
<path d="M205.55 71.5202C205.55 71.5202 205.46 70.7103 205.01 70.7103C204.65 70.7103 204.56 71.2503 204.56 71.6203C204.38 72.8903 203.84 73.7003 202.93 73.9703C202.66 74.0603 202.02 73.8803 201.66 73.6103C197.95 71.0803 192.07 56.7703 189.98 39.4803C187.63 20.2003 192.61 7.89025 195.95 6.98025L196.49 6.53025L196.4 6.26025C196.22 6.35025 196.04 6.44025 195.77 6.53025H195.41L195.32 6.26025C189.71 7.98025 185.36 23.3703 187.9 43.5503C190.07 60.7503 195.59 72.8803 200.21 75.8603C200.93 76.4003 201.66 76.5803 202.38 76.5803C202.56 76.5803 202.83 76.5802 203.01 76.4902C204.55 75.8602 205.82 74.0503 205.54 71.5103" fill="#333F48"/>
<path d="M203.38 43.5502C203.29 43.1002 203.2 42.8303 202.75 41.1103C200.94 33.8703 199.13 22.3703 200.76 14.0503C200.76 13.8703 200.85 13.6903 200.85 13.6003C200.94 13.0603 200.85 12.7903 200.49 12.7903C200.13 12.7003 199.77 13.0603 199.77 13.5103C199.77 13.6003 199.68 13.6903 199.68 13.7803C197.87 22.7403 198.68 35.5902 201.31 44.3702C201.94 46.6302 203.93 45.3703 203.39 43.5603" fill="#333F48"/>
<path d="M169.07 9.61028C168.98 8.16028 167.8 7.08028 166.35 7.17028C164.9 7.26028 163.82 8.44028 163.91 9.89028C164 11.3403 165.18 12.4203 166.63 12.3303C168.08 12.2403 169.16 10.9703 169.07 9.61028Z" fill="#333F48"/>
<path d="M248.18 50.3401C248.18 48.8901 247 47.8101 245.65 47.8101C244.2 47.8101 243.12 48.9901 243.12 50.3401C243.12 51.7901 244.3 52.8701 245.65 52.8701C247.01 52.9601 248.18 51.7801 248.18 50.3401Z" fill="#333F48"/>
<path d="M174.59 3.18023C174.5 1.28023 172.87 -0.16977 170.97 0.01023C169.07 0.10023 167.62 1.73023 167.8 3.63023C167.89 5.53023 169.52 6.98023 171.42 6.80023C173.23 6.62023 174.68 5.08023 174.59 3.18023Z" fill="#333F48"/>
<path d="M257.24 62.4701C256.88 60.5701 254.98 57.8501 252.08 55.4101C250.54 54.1401 249.09 54.9601 250.45 56.1301C251.9 57.4001 261.58 67.5401 247.83 68.1701C243.39 68.3501 234.52 67.6301 217.42 63.0101C216.42 62.7401 215.34 62.4701 214.16 62.1001C212.8 61.7401 211.44 61.2901 210 60.8301C207.92 60.2001 205.75 59.4701 203.39 58.6601C201.22 57.9401 199.05 57.1201 196.69 56.2201C195.42 55.7701 194.06 55.2201 192.71 54.6801C192.53 54.5901 192.35 54.5001 192.08 54.4101C190.9 53.9601 189.73 53.5001 188.55 52.9601C188.1 52.7801 187.55 52.6001 187.1 52.3301C183.21 50.7001 179.13 48.7101 175.15 46.8101C173.97 46.2701 172.8 45.6301 171.62 45.0901C166.64 42.5601 161.75 39.8401 157.32 37.0301C156.05 36.2201 154.88 35.4901 153.7 34.6801C151.35 33.0501 147.91 30.6101 145.82 28.8901C130.25 16.0401 145.55 15.9501 161.84 17.9401C162.93 18.0301 164.01 18.2101 165.1 18.3901L166.55 15.9501C165.74 15.8601 164.83 15.6801 164.02 15.5901C151.62 13.8701 143.11 14.5001 139.58 16.7701C137.23 18.3101 134.06 22.4701 144.02 31.0701C146.65 33.3301 149.81 35.7801 153.34 38.2201C154.61 39.1301 155.97 39.9401 157.32 40.8401C161.66 43.6501 166.55 46.5401 171.8 49.3501C172.98 49.9801 174.15 50.6201 175.42 51.2501C177.05 52.0601 178.77 52.8801 180.49 53.6901C182.21 54.5001 184.02 55.3201 185.74 56.1301C187.01 56.6701 188.18 57.2201 189.45 57.7601C189.54 57.8501 189.72 57.8501 189.81 57.9401C190.9 58.3901 191.98 58.8501 193.07 59.3001C194.16 59.7501 195.24 60.2101 196.33 60.5701C199.41 61.7501 202.58 62.8301 205.65 63.9201C207.01 64.3701 208.37 64.8301 209.81 65.1901C211.26 65.6401 212.71 66.0001 214.15 66.3701C233.52 71.5301 244.38 72.1601 250.63 70.7101H250.72C251.26 70.6201 258.59 69.0801 257.24 62.4701Z" fill="#333F48"/>
</g>
<defs>
<clipPath id="clip0_2142_4012">
<rect width="378.83" height="133.68" fill="white"/>
</clipPath>
</defs>
</svg>
