<svg width="121" height="24" viewBox="0 0 121 24" fill="none" xmlns="http://www.w3.org/2000/svg">
<path d="M26.2878 14.6249H29.7831C30.0275 17.9452 31.6006 20.2876 34.5718 20.2876C36.8088 20.2876 38.1022 19.0293 38.1022 17.3164C38.1022 15.3239 36.3199 14.4851 32.9644 13.0175C29.8886 11.6889 27.1619 10.3963 27.1619 7.28528C27.1619 4.17429 29.9229 2.53174 33.8033 2.53174C37.6837 2.53174 40.5845 4.38444 41.3531 7.77506H37.893C37.5782 5.08349 36.3524 3.12615 33.7312 3.12615C31.7739 3.12615 30.5534 4.20946 30.5534 5.71308C30.5534 7.74077 32.5459 8.71944 35.4116 9.94256C38.6624 11.3407 41.5632 12.7388 41.5632 15.8849C41.5632 19.0311 38.5226 20.8838 34.5032 20.8838C29.8192 20.8838 26.8137 18.332 26.2887 14.6275L26.2878 14.6249Z" fill="#07351A"/>
<path d="M61.5999 18.5264C61.1426 18.8781 60.8261 19.0891 60.1587 19.0891C59.2442 19.0891 58.7527 18.3505 58.7527 16.7335V8.64821C58.7527 4.07844 55.1924 2.53174 51.5714 2.53174C51.0842 2.53174 50.9928 2.53701 50.4889 2.60032C47.1678 2.9116 44.7822 4.7476 44.0849 7.82166H47.545C47.778 5.83091 48.5272 4.24287 49.9622 3.55086C50.4757 3.33279 51.0095 3.23519 51.5107 3.23519C53.5146 3.23519 54.7096 4.43017 54.6744 6.68032C54.6041 9.35166 53.0926 9.87925 49.6123 10.8641C45.148 12.0942 42.8275 13.3253 42.8275 16.4187C42.8275 19.3362 44.8666 20.8838 47.7842 20.8838C51.5107 20.8838 53.8655 18.2468 54.6393 14.697V16.4196C54.6393 19.513 56.1156 20.7792 58.0492 20.7792C59.5256 20.7792 60.5456 20.1812 61.6351 19.0214L61.5999 18.529V18.5264ZM54.6744 11.2492C54.6744 15.6431 52.7408 18.5615 49.5771 18.5615C47.9952 18.5615 46.7299 17.6128 46.7299 15.5385C46.7299 13.1476 48.2414 12.1989 50.8433 11.3204C53.0231 10.617 54.2884 10.1606 54.6753 9.10546V11.2501L54.6744 11.2492Z" fill="#07351A"/>
<path d="M120.964 18.5264C120.507 18.8781 120.19 19.0891 119.523 19.0891C118.608 19.0891 118.117 18.3505 118.117 16.7335V8.64821C118.117 4.07844 114.557 2.53174 110.936 2.53174C110.448 2.53174 110.357 2.53701 109.853 2.60032C106.532 2.9116 104.146 4.7476 103.449 7.82166H106.909C107.142 5.83091 107.891 4.24287 109.326 3.55086C109.84 3.33279 110.374 3.12615 110.875 3.12615C112.879 3.12615 114.074 4.43017 114.039 6.68032C113.968 9.35166 112.457 9.87925 108.977 10.8641C104.512 12.0942 102.192 13.3253 102.192 16.4187C102.192 19.3362 104.231 20.8838 107.148 20.8838C110.875 20.8838 113.23 18.2468 114.004 14.697V16.4196C114.004 19.513 115.48 20.7792 117.414 20.7792C118.89 20.7792 119.91 20.1812 120.999 19.0214L120.964 18.529V18.5264ZM114.039 11.2492C114.039 15.6431 112.105 18.5615 108.941 18.5615C107.359 18.5615 106.094 17.6128 106.094 15.5385C106.094 13.1476 107.606 12.1989 110.208 11.3204C112.387 10.617 113.653 10.1606 114.04 9.10546V11.2501L114.039 11.2492Z" fill="#07351A"/>
<path d="M61.6345 20.2875V20.043C63.4327 20.043 63.4327 18.7144 63.4327 15.4293V7.98416C63.4327 4.45373 63.4327 3.37042 61.6345 3.37042V3.12598H68.5714C67.7677 3.54541 67.5927 4.48891 67.5927 7.98416V9.52207C68.1871 6.58606 70.7037 3.19544 74.9332 3.12598V6.55177C69.5852 6.23697 67.6974 8.64892 67.5927 11.096V15.4302C67.5927 18.7161 67.5927 20.0439 69.3909 20.0439V20.2883H61.6345V20.2875Z" fill="#07351A"/>
<path d="M99.3151 3.12529V3.36974C101.517 3.64936 101.517 4.76784 100.364 7.80937L96.8689 16.9322L93.5134 7.80937C92.3949 4.69838 92.2551 3.68453 94.5273 3.36974V3.12529H85.7535V3.36974C87.4312 3.78917 87.9905 5.11781 89.1441 8.01865L89.9531 10.0455L87.3152 16.9313L83.9597 7.8085C82.8413 4.6975 82.7014 3.68366 84.9736 3.36886V3.12441H76.1998V3.36886C77.8776 3.78829 78.4368 5.11693 79.5904 8.01777L84.4838 20.2859H86.8192L90.362 11.0681L94.0384 20.2859H96.3677L101.169 7.80762C102.392 4.83643 103.231 3.57814 104.699 3.36798V3.12354H99.316L99.3151 3.12529Z" fill="#07351A"/>
<path d="M22.491 15.5319C22.491 19.8774 17.4464 23.4123 11.2455 23.4123C5.0446 23.4123 0 19.8774 0 15.5319C0 14.4662 0.303362 13.4479 0.853809 12.5203C1.39458 13.2167 2.07605 13.8612 2.88853 14.4372C5.08505 15.9944 7.98852 16.864 11.0793 16.8939H11.0811C11.1356 16.8948 11.191 16.8957 11.2464 16.8957C11.3018 16.8957 11.3572 16.8957 11.4117 16.8939H11.4134C13.1211 16.8649 14.7267 16.3866 15.9612 15.538C15.9876 15.5205 16.0131 15.502 16.0395 15.4835C17.3567 14.5497 18.0821 13.2976 18.0821 11.9575C18.0821 10.6174 17.3567 9.3653 16.0395 8.43147C16.0131 8.41301 15.9876 8.39542 15.9612 8.37695C18.2492 9.12085 20.123 10.3879 21.2679 11.9566C21.4015 12.1404 21.5255 12.3277 21.638 12.5185C22.1885 13.4462 22.4919 14.4644 22.4919 15.5301L22.491 15.5319Z" fill="#07351A"/>
<path d="M22.491 7.88037C22.491 8.94609 22.1876 9.96433 21.6372 10.892C21.0964 10.1956 20.4149 9.55106 19.6024 8.97511C17.3655 7.38972 14.3978 6.51656 11.2446 6.51656C11.1883 6.51656 11.1329 6.51744 11.0775 6.51832C9.36992 6.54734 7.7643 7.02568 6.52975 7.87422C6.50337 7.8918 6.47787 7.91027 6.45149 7.92873C5.13429 8.86256 4.40886 10.1147 4.40886 11.4548C4.40886 12.7948 5.13429 14.047 6.45149 14.9808C6.47787 14.9993 6.50337 15.0168 6.52975 15.0353C4.24179 14.2914 2.36798 13.0243 1.22312 11.4556C1.08946 11.2719 0.965482 11.0846 0.85293 10.8938C0.303362 9.96433 0 8.94697 0 7.88037C0 3.53482 5.0446 0 11.2455 0C17.4464 0 22.491 3.53482 22.491 7.88037Z" fill="#07351A"/>
</svg>
